<?xml version="1.0" standalone="no"?>
<!DOCTYPE svg PUBLIC "-//W3C//DTD SVG 20010904//EN"
 "http://www.w3.org/TR/2001/REC-SVG-20010904/DTD/svg10.dtd">
<svg version="1.0" xmlns="http://www.w3.org/2000/svg"
 width="386.000000pt" height="386.000000pt" viewBox="0 0 386.000000 386.000000"
 preserveAspectRatio="xMidYMid meet">
<metadata>
Created by potrace 1.16, written by Peter Selinger 2001-2019
</metadata>
<g transform="translate(0.000000,386.000000) scale(0.100000,-0.100000)"
fill="#000000" stroke="none">
<path d="M0 1930 l0 -1930 1930 0 1930 0 0 1930 0 1930 -1930 0 -1930 0 0
-1930z m3840 0 l0 -1910 -1790 0 -1790 0 0 240 c0 153 -4 240 -10 240 -6 0
-10 -87 -10 -240 l0 -240 -110 0 -110 0 0 1910 0 1910 1910 0 1910 0 0 -1910z"/>
<path d="M240 2170 c0 -960 3 -1450 10 -1450 7 0 10 487 10 1440 l0 1440 1680
0 c1113 0 1680 3 1680 10 0 7 -570 10 -1690 10 l-1690 0 0 -1450z"/>
<path d="M480 1810 l0 -1570 1570 0 1570 0 0 1330 c0 880 -3 1330 -10 1330 -6
0 -10 -47 -10 -120 l0 -120 -110 0 -110 0 0 120 c0 73 -4 120 -10 120 -6 0
-10 -50 -10 -130 l0 -130 120 0 120 0 0 -230 0 -230 -120 0 c-73 0 -120 -4
-120 -10 0 -6 47 -10 120 -10 l120 0 0 -470 0 -470 -110 0 -110 0 0 120 0 120
-120 0 -120 0 0 120 0 120 -120 0 -120 0 0 600 c0 393 -3 600 -10 600 -7 0
-10 -210 -10 -610 l0 -610 120 0 120 0 0 -120 0 -120 120 0 120 0 0 -120 0
-120 120 0 120 0 0 -470 0 -470 -1550 0 -1550 0 0 1550 0 1550 1560 0 c1033 0
1560 3 1560 10 0 7 -530 10 -1570 10 l-1570 0 0 -1570z"/>
<path d="M720 3010 l0 -130 250 0 c160 0 250 4 250 10 0 6 -87 10 -240 10
l-240 0 0 120 c0 73 -4 120 -10 120 -6 0 -10 -50 -10 -130z"/>
<path d="M960 3130 c0 -6 87 -10 240 -10 l240 0 0 -230 0 -230 -120 0 c-73 0
-120 -4 -120 -10 0 -6 47 -10 120 -10 l120 0 0 -110 0 -110 -120 0 -120 0 0
-120 0 -120 -110 0 -110 0 0 120 c0 73 -4 120 -10 120 -6 0 -10 -50 -10 -130
l0 -130 120 0 120 0 0 -120 c0 -73 4 -120 10 -120 6 0 10 87 10 240 l0 240
110 0 110 0 0 -590 0 -590 -110 0 -110 0 0 120 c0 73 -4 120 -10 120 -6 0 -10
-87 -10 -240 l0 -240 -110 0 -110 0 0 120 c0 73 -4 120 -10 120 -6 0 -10 -50
-10 -130 l0 -130 130 0 130 0 0 120 0 120 110 0 110 0 0 -230 0 -230 -120 0
c-73 0 -120 -4 -120 -10 0 -7 210 -10 610 -10 l610 0 0 250 c0 160 -4 250 -10
250 -6 0 -10 -47 -10 -120 l0 -120 -120 0 c-73 0 -120 -4 -120 -10 0 -6 47
-10 120 -10 l120 0 0 -110 0 -110 -470 0 -470 0 0 350 0 350 110 0 110 0 0
-120 c0 -73 4 -120 10 -120 6 0 10 47 10 120 l0 120 120 0 c73 0 120 4 120 10
0 6 -87 10 -240 10 l-240 0 0 470 0 470 470 0 470 0 0 -470 0 -470 -120 0
-120 0 0 -120 0 -120 -120 0 -120 0 0 -120 0 -120 -120 0 c-73 0 -120 -4 -120
-10 0 -6 50 -10 130 -10 l130 0 0 120 0 120 120 0 120 0 0 120 0 120 230 0
230 0 0 -360 c0 -233 4 -360 10 -360 6 0 10 47 10 120 l0 120 230 0 230 0 0
-120 c0 -73 4 -120 10 -120 6 0 10 47 10 120 l0 120 120 0 c73 0 120 4 120 10
0 6 -127 10 -360 10 l-360 0 0 110 0 110 240 0 c153 0 240 4 240 10 0 6 -47
10 -120 10 l-120 0 0 120 c0 73 -4 120 -10 120 -6 0 -10 -47 -10 -120 l0 -120
-110 0 -110 0 0 240 c0 153 -4 240 -10 240 -6 0 -10 -47 -10 -120 l0 -120
-110 0 -110 0 0 480 0 480 -480 0 -480 0 0 230 0 230 360 0 c233 0 360 4 360
10 0 6 -127 10 -360 10 l-360 0 0 120 0 120 -250 0 c-160 0 -250 -4 -250 -10z"/>
<path d="M1680 3130 c0 -6 127 -10 360 -10 l360 0 0 -230 0 -230 -360 0 c-233
0 -360 -4 -360 -10 0 -6 130 -10 370 -10 l370 0 0 240 0 240 110 0 110 0 0
-600 c0 -393 3 -600 10 -600 7 0 10 207 10 600 l0 600 230 0 230 0 0 -600 0
-600 120 0 120 0 0 -120 c0 -73 4 -120 10 -120 6 0 10 50 10 130 l0 130 -120
0 -120 0 0 230 0 230 120 0 c73 0 120 4 120 10 0 6 -47 10 -120 10 l-120 0 0
350 0 350 240 0 c153 0 240 4 240 10 0 7 -330 10 -970 10 -640 0 -970 -3 -970
-10z"/>
<path d="M720 1570 l0 -1090 1330 0 1330 0 0 130 c0 80 -4 130 -10 130 -6 0
-10 -47 -10 -120 l0 -120 -230 0 -230 0 0 120 c0 73 -4 120 -10 120 -6 0 -10
-47 -10 -120 l0 -120 -1070 0 -1070 0 0 110 0 110 120 0 c73 0 120 4 120 10 0
6 -47 10 -120 10 l-120 0 0 350 0 350 120 0 120 0 0 120 0 120 120 0 c73 0
120 4 120 10 0 6 -50 10 -130 10 l-130 0 0 -120 0 -120 -110 0 -110 0 0 230 0
230 120 0 c73 0 120 4 120 10 0 6 -47 10 -120 10 l-120 0 0 350 0 350 120 0
c73 0 120 4 120 10 0 6 -50 10 -130 10 l-130 0 0 -1090z"/>
<path d="M1680 2050 c0 -80 4 -130 10 -130 6 0 10 47 10 120 l0 120 230 0 230
0 0 -230 0 -230 -240 0 c-153 0 -240 -4 -240 -10 0 -6 90 -10 250 -10 l250 0
0 250 0 250 -250 0 -250 0 0 -130z"/>
<path d="M1920 1930 c0 -5 5 -10 10 -10 6 0 10 5 10 10 0 6 -4 10 -10 10 -5 0
-10 -4 -10 -10z"/>
</g>
</svg>
